<svg width="55" height="21" viewBox="0 0 55 21" fill="none" xmlns="http://www.w3.org/2000/svg">
<path d="M0.264 4.76L4.68 3.2H7.56L7.56 20H4.248V6.704L1.08 7.592L0.264 4.76ZM19.7933 11.264C21.3453 12.192 22.1213 13.544 22.1213 15.32C22.1213 16.872 21.5773 18.096 20.4893 18.992C19.4173 19.888 17.9533 20.336 16.0973 20.336C14.2253 20.336 12.7533 19.888 11.6813 18.992C10.6093 18.096 10.0732 16.872 10.0732 15.32C10.0732 13.56 10.8413 12.208 12.3773 11.264C11.2093 10.432 10.6253 9.272 10.6253 7.784C10.6253 6.232 11.1453 5.024 12.1853 4.16C13.2413 3.296 14.5453 2.864 16.0973 2.864C17.6653 2.864 18.9613 3.296 19.9853 4.16C21.0253 5.024 21.5453 6.232 21.5453 7.784C21.5453 9.272 20.9613 10.432 19.7933 11.264ZM18.2573 7.952C18.2573 7.344 18.0573 6.864 17.6573 6.512C17.2573 6.16 16.7373 5.984 16.0973 5.984C15.4573 5.984 14.9373 6.16 14.5373 6.512C14.1373 6.864 13.9373 7.344 13.9373 7.952C13.9373 8.576 14.1373 9.064 14.5373 9.416C14.9373 9.768 15.4573 9.944 16.0973 9.944C16.7373 9.944 17.2573 9.768 17.6573 9.416C18.0573 9.064 18.2573 8.576 18.2573 7.952ZM18.0893 16.592C18.5853 16.176 18.8333 15.608 18.8333 14.888C18.8333 14.168 18.5853 13.608 18.0893 13.208C17.5933 12.792 16.9293 12.584 16.0973 12.584C15.2653 12.584 14.6013 12.792 14.1053 13.208C13.6093 13.608 13.3613 14.168 13.3613 14.888C13.3613 15.608 13.6093 16.176 14.1053 16.592C14.6013 17.008 15.2653 17.216 16.0973 17.216C16.9293 17.216 17.5933 17.008 18.0893 16.592ZM26.7849 8.48C25.6329 8.48 24.6729 8.096 23.9049 7.328C23.1369 6.528 22.7529 5.592 22.7529 4.52C22.7529 3.416 23.1369 2.48 23.9049 1.712C24.6729 0.943999 25.6329 0.559999 26.7849 0.559999C27.9369 0.559999 28.8969 0.943999 29.6649 1.712C30.4329 2.48 30.8169 3.416 30.8169 4.52C30.8169 5.624 30.4329 6.56 29.6649 7.328C28.9129 8.096 27.9529 8.48 26.7849 8.48ZM25.7529 5.552C26.0249 5.824 26.3689 5.96 26.7849 5.96C27.2009 5.96 27.5369 5.824 27.7929 5.552C28.0649 5.28 28.2009 4.936 28.2009 4.52C28.2009 4.104 28.0649 3.76 27.7929 3.488C27.5369 3.216 27.2009 3.08 26.7849 3.08C26.3689 3.08 26.0249 3.216 25.7529 3.488C25.4969 3.76 25.3689 4.104 25.3689 4.52C25.3689 4.936 25.4969 5.28 25.7529 5.552ZM47.1218 20.336C44.6098 20.336 42.5218 19.496 40.8578 17.816C39.2098 16.152 38.3857 14.08 38.3857 11.6C38.3857 9.104 39.2098 7.032 40.8578 5.384C42.5218 3.704 44.6098 2.864 47.1218 2.864C48.6418 2.864 50.0418 3.224 51.3218 3.944C52.6178 4.648 53.6258 5.608 54.3458 6.824L51.4898 8.48C51.0738 7.728 50.4818 7.144 49.7137 6.728C48.9458 6.296 48.0818 6.08 47.1218 6.08C45.4898 6.08 44.1698 6.592 43.1618 7.616C42.1698 8.656 41.6738 9.984 41.6738 11.6C41.6738 13.2 42.1698 14.52 43.1618 15.56C44.1698 16.584 45.4898 17.096 47.1218 17.096C48.0818 17.096 48.9458 16.888 49.7137 16.472C50.4978 16.04 51.0898 15.456 51.4898 14.72L54.3458 16.376C53.6258 17.592 52.6178 18.56 51.3218 19.28C50.0418 19.984 48.6418 20.336 47.1218 20.336Z" fill="#22215B"/>
</svg>
