<svg width="48" height="48" viewBox="0 0 48 48" fill="none" xmlns="http://www.w3.org/2000/svg">
<path d="M40.83 8.48C41.97 8.48 42.83 9.48 42.37 11.34L36.79 37.64C36.4 39.51 35.27 39.96 33.71 39.09L20.4 29.26C20.3484 29.223 20.3063 29.1742 20.2773 29.1177C20.2483 29.0611 20.2332 28.9985 20.2332 28.935C20.2332 28.8715 20.2483 28.8089 20.2773 28.7523C20.3063 28.6958 20.3484 28.647 20.4 28.61L35.77 14.73C36.47 14.11 35.62 13.81 34.7 14.37L15.41 26.54C15.3515 26.5782 15.2851 26.6025 15.2158 26.6111C15.1465 26.6198 15.0761 26.6126 15.01 26.59L6.82 24C5 23.47 5 22.22 7.23 21.33L40 8.69C40.2599 8.56532 40.5421 8.49391 40.83 8.48V8.48Z" stroke="black" stroke-linecap="round" stroke-linejoin="round"/>
</svg>
